<?xml version="1.0" encoding="UTF-8"?>
<svg id="Capa_2" data-name="Capa 2" xmlns="http://www.w3.org/2000/svg" viewBox="0 0 1340.84 272.95">
  <defs>
    <style>
      .cls-1 {
        fill: #272727;
      }

      .cls-2 {
        fill: #835ffd;
      }
    </style>
  </defs>
  <g id="Capa_1-2" data-name="Capa 1">
    <g>
      <path class="cls-1" d="M165.58,271.95c-7.28,0-13.47-2.4-18.59-7.19-5.13-4.79-7.68-11.81-7.68-21.07,0-4.62.41-10.08,1.24-16.36.82-6.27,2.06-13.05,3.72-20.33l11.4-58.99c1.65-8.25,2.89-14.78,3.72-19.58.82-4.78,1.24-7.85,1.24-9.17,0-13.55-4.79-20.33-14.38-20.33-3.96,0-8.84,3.97-14.62,11.9-5.78,7.93-11.65,18.02-17.6,30.24-5.95,12.23-11.33,25.03-16.11,38.42-4.79,13.38-8.35,25.53-10.66,36.43l-10.41,52.05c-6.28,1.98-15.54,2.97-27.76,2.97-11.57,0-21.32-.99-29.25-2.97l29.74-155.16c.33-1.65.57-3.38.74-5.2.16-1.81.25-3.88.25-6.2,0-7.93-1.66-11.9-4.96-11.9-2.98,0-7.02,1.66-12.15,4.96-5.13,3.31-9.92,7.03-14.38,11.15-4.46,4.14-7.68,7.52-9.67,10.17-.67,0-2.4-1.65-5.2-4.96-2.82-3.3-4.22-5.62-4.22-6.94,1.98-4.62,6.2-10.16,12.64-16.61,6.44-6.44,14.04-12.89,22.8-19.33,8.75-6.45,17.68-11.82,26.77-16.11,9.08-4.29,17.1-6.45,24.04-6.45,7.6,0,13.88,2.4,18.84,7.19,4.96,4.8,7.43,11.82,7.43,21.07,0,1.98-.33,5.62-.99,10.9-.67,5.29-1.65,12.23-2.97,20.82,0,.33-.67,4.63-1.98,12.89,5.95-11.9,13.05-23.38,21.32-34.45,8.25-11.07,16.77-20.24,25.53-27.51,8.75-7.27,16.77-10.91,24.04-10.91,14.54,0,25.28,5.13,32.22,15.37,6.94,10.25,10.42,23.13,10.42,38.66,0,3.97-.67,10.41-1.98,19.33-1.32,8.92-3.31,20.16-5.95,33.71-3.31,17.85-5.79,30.98-7.43,39.41-1.66,8.43-2.65,14.3-2.98,17.6-.33,3.31-.49,6.44-.49,9.42,0,5.95,1.65,8.92,4.95,8.92s7.44-1.65,12.39-4.96c4.96-3.3,9.75-7.1,14.38-11.4,4.62-4.29,7.76-7.6,9.42-9.92.99,0,2.8,1.66,5.45,4.96,2.64,3.31,3.97,5.62,3.97,6.94-1.98,4.3-6.2,9.75-12.64,16.36-6.45,6.62-14.05,13.14-22.81,19.58-8.76,6.45-17.68,11.82-26.77,16.11-9.09,4.29-17.1,6.45-24.04,6.45Z"/>
      <path class="cls-1" d="M262.14,271.95c-7.6,0-13.88-2.4-18.83-7.19s-7.43-11.81-7.43-21.07c0-2.64.32-6.52.99-11.65.65-5.12,1.4-10.16,2.23-15.12.82-4.96,1.4-8.26,1.73-9.92l23.8-122.44h-27.76c-1.33,0-1.98-1.98-1.98-5.95,0-3.63.74-8.01,2.23-13.14,1.48-5.12,3.05-8.5,4.71-10.16h28.75l9.42-48.58c.33-1.65,3.63-2.98,9.92-3.97,6.28-.99,11.57-1.65,15.87-1.98,6.61-.66,12.97-.91,19.08-.74,6.11.17,10.82.91,14.13,2.23l-11.4,53.04h43.13c3.3,0,4.95,2.81,4.95,8.43,0,7.93-1.98,14.87-5.95,20.82h-47.59l-21.81,112.53c-.99,4.63-1.66,8.27-1.98,10.91-.33,2.65-.5,5.29-.5,7.93,0,7.93,1.65,11.9,4.96,11.9s7.35-1.65,12.15-4.96c4.78-3.3,9.49-7.1,14.13-11.4,4.62-4.29,7.93-7.6,9.91-9.92.66,0,2.4,1.66,5.21,4.96,2.8,3.31,4.22,5.62,4.22,6.94-1.98,4.3-6.2,9.75-12.64,16.36-6.45,6.62-14.05,13.14-22.8,19.58-8.76,6.45-17.68,11.82-26.77,16.11-9.09,4.29-17.1,6.45-24.05,6.45Z"/>
      <path class="cls-2" d="M399.46,272.95c-9.25,0-16.28-3.06-21.07-9.17-4.8-6.11-7.19-13.13-7.19-21.07,0-11.56,4.22-21.81,12.64-30.73,8.43-8.92,17.93-13.38,28.51-13.38,7.6,0,14.21,2.57,19.83,7.68,5.62,5.13,8.42,11.98,8.42,20.57,0,7.93-1.98,15.45-5.95,22.55-3.97,7.11-9.09,12.81-15.37,17.1-6.28,4.29-12.89,6.45-19.83,6.45ZM429.2,119.77c-9.25,0-16.28-3.05-21.07-9.17-4.79-6.11-7.18-13.13-7.18-21.07,0-11.56,4.21-21.81,12.64-30.73,8.43-8.92,17.92-13.38,28.5-13.38,7.6,0,14.2,2.57,19.83,7.68,5.62,5.13,8.43,11.98,8.43,20.57,0,7.93-1.98,15.45-5.95,22.55-3.97,7.11-9.09,12.81-15.37,17.1-6.28,4.3-12.89,6.45-19.83,6.45Z"/>
      <path class="cls-1" d="M647.82,271.95c-7.27,0-13.47-2.4-18.59-7.19-5.13-4.79-7.68-11.81-7.68-21.07,0-4.62.41-10.08,1.24-16.36.82-6.27,2.06-13.05,3.72-20.33l11.4-58.99c1.65-8.25,2.89-14.78,3.72-19.58.82-4.78,1.24-7.85,1.24-9.17,0-13.55-4.8-20.33-14.38-20.33-3.97,0-8.85,3.97-14.62,11.9-5.79,7.93-11.65,18.02-17.6,30.24-5.95,12.23-11.32,25.03-16.11,38.42-4.8,13.38-8.35,25.53-10.66,36.43l-10.41,52.05c-6.28,1.98-15.54,2.97-27.76,2.97-11.57,0-21.32-.99-29.25-2.97l29.75-155.16c.32-1.65.57-3.38.75-5.2.16-1.81.25-3.88.25-6.2,0-7.93-1.66-11.9-4.96-11.9-2.97,0-7.03,1.66-12.15,4.96-5.13,3.31-9.91,7.03-14.37,11.15-4.46,4.14-7.68,7.52-9.67,10.17-.67,0-2.4-1.65-5.21-4.96-2.81-3.3-4.21-5.62-4.21-6.94,1.98-4.62,6.2-10.16,12.64-16.61,6.45-6.44,14.04-12.89,22.8-19.33,8.75-6.45,17.67-11.82,26.77-16.11,9.08-4.29,17.1-6.45,24.04-6.45,7.6,0,13.88,2.4,18.84,7.19,4.95,4.8,7.43,11.82,7.43,21.07,0,1.98-.33,5.62-.99,10.9-.67,5.29-1.66,12.23-2.98,20.82,0,.33-.67,4.63-1.98,12.89,5.95-11.9,13.05-23.38,21.32-34.45,8.26-11.07,16.77-20.24,25.53-27.51,8.75-7.27,16.77-10.91,24.05-10.91,14.54,0,25.28,5.13,32.22,15.37,6.94,10.25,10.41,23.13,10.41,38.66,0,3.97-.67,10.41-1.98,19.33-1.32,8.92-3.3,20.16-5.95,33.71-3.31,17.85-5.78,30.98-7.44,39.41-1.65,8.43-2.65,14.3-2.97,17.6-.33,3.31-.5,6.44-.5,9.42,0,5.95,1.65,8.92,4.96,8.92s7.43-1.65,12.39-4.96c4.95-3.3,9.74-7.1,14.38-11.4,4.62-4.29,7.76-7.6,9.42-9.92.99,0,2.81,1.66,5.45,4.96,2.64,3.31,3.97,5.62,3.97,6.94-1.98,4.3-6.2,9.75-12.64,16.36-6.44,6.62-14.05,13.14-22.8,19.58-8.76,6.45-17.68,11.82-26.77,16.11-9.1,4.29-17.1,6.45-24.05,6.45Z"/>
      <path class="cls-1" d="M797.53,271.95c-18.18,0-32.4-6.77-42.64-20.33-10.25-13.55-15.37-31.23-15.37-53.04,0-17.51,4.04-35.27,12.15-53.29,8.1-18.01,19.33-34.53,33.71-49.57,14.38-15.03,30.98-27.18,49.82-36.43,18.83-9.25,38.99-13.88,60.48-13.88,10.57,0,20.08,1.16,28.5,3.47,8.43,2.32,14.45,4.8,18.1,7.44l-26.27,134.84c-1.32,7.6-2.23,12.97-2.73,16.11-.5,3.14-.74,6.03-.74,8.67,0,7.93,1.65,11.9,4.95,11.9s7.35-1.65,12.15-4.96c4.79-3.3,9.5-7.1,14.13-11.4,4.62-4.29,7.93-7.6,9.92-9.92.66,0,2.39,1.66,5.2,4.96,2.8,3.31,4.21,5.62,4.21,6.94-1.98,4.3-6.19,9.75-12.64,16.36-6.45,6.62-14.05,13.14-22.8,19.58-8.76,6.45-17.68,11.82-26.77,16.11-9.1,4.29-17.1,6.45-24.04,6.45-7.61,0-13.88-2.4-18.84-7.19-4.96-4.79-7.44-11.32-7.44-19.58,0-2.64.08-5.21.25-7.68.16-2.48.41-4.87.74-7.19-15.2,27.76-33.22,41.64-54.03,41.64ZM815.87,234.28c7.27,0,14.45-5.37,21.57-16.11,7.1-10.73,13.63-24.45,19.58-41.15,5.95-16.68,10.74-33.96,14.38-51.8l8.92-44.61c-2.32-2.31-6.78-3.47-13.38-3.47-9.92,0-19.01,4.71-27.27,14.13-8.27,9.42-15.29,21.15-21.07,35.2-5.79,14.05-10.25,28.34-13.38,42.88-3.14,14.55-4.71,26.94-4.71,37.18,0,18.52,5.12,27.76,15.37,27.76Z"/>
      <path class="cls-1" d="M1002.26,271.95c-7.6,0-13.88-2.4-18.83-7.19-4.96-4.79-7.43-11.81-7.43-21.07,0-2.64.32-6.52.99-11.65.65-5.12,1.4-10.16,2.23-15.12.82-4.96,1.4-8.26,1.73-9.92l23.8-122.44h-27.76c-1.33,0-1.98-1.98-1.98-5.95,0-3.63.74-8.01,2.23-13.14,1.48-5.12,3.05-8.5,4.71-10.16h28.75l9.42-48.58c.33-1.65,3.63-2.98,9.92-3.97,6.28-.99,11.57-1.65,15.87-1.98,6.61-.66,12.97-.91,19.08-.74,6.11.17,10.82.91,14.13,2.23l-11.4,53.04h43.13c3.3,0,4.95,2.81,4.95,8.43,0,7.93-1.98,14.87-5.95,20.82h-47.59l-21.81,112.53c-.99,4.63-1.66,8.27-1.98,10.91-.33,2.65-.5,5.29-.5,7.93,0,7.93,1.65,11.9,4.96,11.9s7.35-1.65,12.15-4.96c4.78-3.3,9.49-7.1,14.13-11.4,4.62-4.29,7.93-7.6,9.91-9.92.66,0,2.4,1.66,5.21,4.96,2.8,3.31,4.22,5.62,4.22,6.94-1.98,4.3-6.2,9.75-12.64,16.36-6.45,6.62-14.05,13.14-22.8,19.58-8.76,6.45-17.68,11.82-26.77,16.11-9.09,4.29-17.1,6.45-24.05,6.45Z"/>
      <path class="cls-1" d="M1175.27,271.95c-18.18,0-32.4-6.77-42.64-20.33-10.25-13.55-15.37-31.23-15.37-53.04,0-17.51,4.04-35.27,12.15-53.29,8.1-18.01,19.33-34.53,33.71-49.57,14.38-15.03,30.98-27.18,49.82-36.43,18.83-9.25,38.99-13.88,60.48-13.88,10.57,0,20.08,1.16,28.5,3.47,8.43,2.32,14.45,4.8,18.1,7.44l-26.27,134.84c-1.32,7.6-2.23,12.97-2.73,16.11-.5,3.14-.74,6.03-.74,8.67,0,7.93,1.65,11.9,4.95,11.9s7.35-1.65,12.15-4.96c4.79-3.3,9.5-7.1,14.13-11.4,4.62-4.29,7.93-7.6,9.92-9.92.66,0,2.39,1.66,5.2,4.96,2.8,3.31,4.21,5.62,4.21,6.94-1.98,4.3-6.19,9.75-12.64,16.36-6.45,6.62-14.05,13.14-22.8,19.58-8.76,6.45-17.68,11.82-26.77,16.11-9.1,4.29-17.1,6.45-24.04,6.45-7.61,0-13.88-2.4-18.84-7.19-4.96-4.79-7.44-11.32-7.44-19.58,0-2.64.08-5.21.25-7.68.16-2.48.41-4.87.74-7.19-15.2,27.76-33.22,41.64-54.03,41.64ZM1193.61,234.28c7.27,0,14.45-5.37,21.57-16.11,7.1-10.73,13.63-24.45,19.58-41.15,5.95-16.68,10.74-33.96,14.38-51.8l8.92-44.61c-2.32-2.31-6.78-3.47-13.38-3.47-9.92,0-19.01,4.71-27.27,14.13-8.27,9.42-15.29,21.15-21.07,35.2-5.79,14.05-10.25,28.34-13.38,42.88-3.14,14.55-4.71,26.94-4.71,37.18,0,18.52,5.12,27.76,15.37,27.76Z"/>
    </g>
  </g>
</svg>